<svg xmlns="http://www.w3.org/2000/svg" xmlns:xlink="http://www.w3.org/1999/xlink" viewBox="0 0 358.67 358.67"><defs><style>.cls-1{isolation:isolate;}.cls-2{fill:url(#Gold_Radial);}.cls-3{fill:url(#radial-gradient);}.cls-4{fill:url(#linear-gradient);}.cls-5{fill:url(#linear-gradient-2);}.cls-6{fill:url(#linear-gradient-3);}.cls-7{fill:url(#linear-gradient-4);}.cls-8{fill:url(#linear-gradient-5);}.cls-9{fill:url(#radial-gradient-2);}.cls-10{fill:url(#radial-gradient-3);}.cls-11{fill:url(#radial-gradient-4);}.cls-12{fill:url(#radial-gradient-5);}.cls-13{fill:url(#radial-gradient-6);}.cls-14{fill:url(#radial-gradient-7);}.cls-15{fill:url(#radial-gradient-8);}.cls-16{fill:url(#radial-gradient-9);}.cls-17{fill:url(#radial-gradient-10);}.cls-18{fill:url(#radial-gradient-11);}.cls-19{fill:url(#radial-gradient-12);}.cls-20{fill:url(#radial-gradient-13);}.cls-21{fill:url(#radial-gradient-14);}.cls-22{fill:url(#radial-gradient-15);}.cls-23{fill:url(#radial-gradient-16);}.cls-24{fill:url(#radial-gradient-17);}.cls-25{fill:url(#radial-gradient-18);}.cls-26{fill:url(#radial-gradient-19);}.cls-27{fill:url(#radial-gradient-20);}.cls-28{fill:url(#radial-gradient-21);}.cls-29{opacity:0.44;mix-blend-mode:multiply;fill:url(#radial-gradient-22);}.cls-30{fill:url(#Gold_Radial-2);}.cls-31{fill:url(#radial-gradient-23);}.cls-32{fill:url(#Gold_Radial-3);}.cls-33{fill:url(#radial-gradient-24);}.cls-34{fill:#fff;}</style><radialGradient id="Gold_Radial" cx="179.33" cy="166.01" r="134.2" gradientUnits="userSpaceOnUse"><stop offset="0" stop-color="#fffbcc"/><stop offset="0.11" stop-color="#fbf2bb"/><stop offset="0.34" stop-color="#f0d98e"/><stop offset="0.37" stop-color="#eed688"/><stop offset="0.69" stop-color="#ebbb10"/><stop offset="1" stop-color="#c3922e"/></radialGradient><radialGradient id="radial-gradient" cx="179.33" cy="169.98" r="93.05" gradientUnits="userSpaceOnUse"><stop offset="0.87" stop-color="#ebbb10"/><stop offset="0.9" stop-color="#fffbcc"/><stop offset="0.9" stop-color="#fdf6c3"/><stop offset="0.9" stop-color="#f7eaad"/><stop offset="0.91" stop-color="#f3e19c"/><stop offset="0.91" stop-color="#f0db91"/><stop offset="0.92" stop-color="#eed78a"/><stop offset="0.93" stop-color="#eed688"/><stop offset="0.95" stop-color="#e0c16c"/><stop offset="0.98" stop-color="#cb9f3f"/><stop offset="1" stop-color="#c3922e"/></radialGradient><linearGradient id="linear-gradient" x1="2121.49" y1="294.41" x2="2190.22" y2="284.26" gradientTransform="matrix(-1, 0, 0, 1, 2468.55, 0)" gradientUnits="userSpaceOnUse"><stop offset="0" stop-color="#e1655a"/><stop offset="0.35" stop-color="#e1655a"/><stop offset="0.47" stop-color="#cd352f"/><stop offset="0.59" stop-color="#bd0f0d"/><stop offset="0.65" stop-color="#b70000"/><stop offset="0.73" stop-color="#950000"/><stop offset="0.85" stop-color="#640000"/><stop offset="0.94" stop-color="#460000"/><stop offset="0.99" stop-color="#3b0000"/></linearGradient><linearGradient id="linear-gradient-2" x1="2252.91" y1="294.41" x2="2321.64" y2="284.26" gradientTransform="translate(-2241.3)" xlink:href="#linear-gradient"/><linearGradient id="linear-gradient-3" x1="64.95" y1="301.15" x2="78.06" y2="311.31" gradientUnits="userSpaceOnUse"><stop offset="0" stop-color="#240000"/><stop offset="0.17" stop-color="#300"/><stop offset="0.49" stop-color="#5b0000"/><stop offset="0.92" stop-color="#9b0000"/><stop offset="1" stop-color="#a70000"/></linearGradient><linearGradient id="linear-gradient-4" x1="299.55" y1="301.15" x2="312.67" y2="311.31" gradientTransform="matrix(-1, 0, 0, 1, 593.26, 0)" xlink:href="#linear-gradient-3"/><linearGradient id="linear-gradient-5" x1="46.37" y1="298.99" x2="564.98" y2="212.2" gradientUnits="userSpaceOnUse"><stop offset="0" stop-color="#e16560"/><stop offset="0.08" stop-color="#e63b27"/><stop offset="0.19" stop-color="#b11"/><stop offset="0.23" stop-color="#b11"/><stop offset="0.28" stop-color="#cb3131"/><stop offset="0.36" stop-color="#e36262"/><stop offset="0.42" stop-color="#f18080"/><stop offset="0.46" stop-color="#f78b8b"/><stop offset="0.55" stop-color="#f68888"/><stop offset="0.62" stop-color="#f5807e"/><stop offset="0.69" stop-color="#f2736d"/><stop offset="0.75" stop-color="#ee6055"/><stop offset="0.81" stop-color="#e94837"/><stop offset="0.84" stop-color="#e63b27"/><stop offset="1" stop-color="#f78b8b"/></linearGradient><radialGradient id="radial-gradient-2" cx="179.14" cy="68.56" r="15.31" gradientUnits="userSpaceOnUse"><stop offset="0" stop-color="#fffbcc"/><stop offset="0.11" stop-color="#fbf2bb"/><stop offset="0.34" stop-color="#f0d98e"/><stop offset="0.37" stop-color="#eed688"/><stop offset="1" stop-color="#c3922e"/></radialGradient><radialGradient id="radial-gradient-3" cx="179.14" cy="58.53" r="15.76" xlink:href="#radial-gradient-2"/><radialGradient id="radial-gradient-4" cx="158.02" cy="49.39" r="1.72" xlink:href="#radial-gradient-2"/><radialGradient id="radial-gradient-5" cx="172.29" cy="49.39" r="1.72" xlink:href="#radial-gradient-2"/><radialGradient id="radial-gradient-6" cx="185.43" cy="49.39" r="1.72" xlink:href="#radial-gradient-2"/><radialGradient id="radial-gradient-7" cx="200.65" cy="49.39" r="1.72" xlink:href="#radial-gradient-2"/><radialGradient id="radial-gradient-8" cx="9.04" cy="47.33" r="334.72" gradientUnits="userSpaceOnUse"><stop offset="0" stop-color="#ebbb10"/><stop offset="1" stop-color="#c3922e"/></radialGradient><radialGradient id="radial-gradient-9" cx="9.04" cy="47.33" r="334.72" xlink:href="#radial-gradient-8"/><radialGradient id="radial-gradient-10" cx="9.04" cy="47.33" r="334.73" xlink:href="#radial-gradient-8"/><radialGradient id="radial-gradient-11" cx="9.04" cy="47.33" r="334.72" xlink:href="#radial-gradient-8"/><radialGradient id="radial-gradient-12" cx="9.04" cy="47.34" r="334.72" xlink:href="#radial-gradient-8"/><radialGradient id="radial-gradient-13" cx="9.04" cy="47.34" r="334.72" xlink:href="#radial-gradient-8"/><radialGradient id="radial-gradient-14" cx="9.04" cy="47.33" r="334.73" xlink:href="#radial-gradient-8"/><radialGradient id="radial-gradient-15" cx="13.63" cy="47.33" r="334.72" gradientTransform="translate(362.99 258.65) rotate(180)" xlink:href="#radial-gradient-8"/><radialGradient id="radial-gradient-16" cx="13.63" cy="47.33" r="334.72" gradientTransform="translate(362.99 258.65) rotate(180)" xlink:href="#radial-gradient-8"/><radialGradient id="radial-gradient-17" cx="13.63" cy="47.33" r="334.72" gradientTransform="translate(362.99 258.65) rotate(180)" xlink:href="#radial-gradient-8"/><radialGradient id="radial-gradient-18" cx="13.63" cy="47.33" r="334.72" gradientTransform="translate(362.99 258.65) rotate(180)" xlink:href="#radial-gradient-8"/><radialGradient id="radial-gradient-19" cx="13.63" cy="47.33" r="334.73" gradientTransform="translate(362.99 258.65) rotate(180)" xlink:href="#radial-gradient-8"/><radialGradient id="radial-gradient-20" cx="13.63" cy="47.33" r="334.72" gradientTransform="translate(362.99 258.65) rotate(180)" xlink:href="#radial-gradient-8"/><radialGradient id="radial-gradient-21" cx="13.63" cy="47.34" r="334.72" gradientTransform="translate(362.99 258.65) rotate(180)" xlink:href="#radial-gradient-8"/><radialGradient id="radial-gradient-22" cx="150.6" cy="-1914.38" r="85.25" gradientTransform="translate(-47.76 479.01) scale(1.5 0.09)" gradientUnits="userSpaceOnUse"><stop offset="0" stop-color="#6e6e6e"/><stop offset="0.1" stop-color="#929292"/><stop offset="0.21" stop-color="#b3b3b3"/><stop offset="0.32" stop-color="#cfcfcf"/><stop offset="0.45" stop-color="#e4e4e4"/><stop offset="0.59" stop-color="#f3f3f3"/><stop offset="0.75" stop-color="#fcfcfc"/><stop offset="1" stop-color="#fff"/></radialGradient><radialGradient id="Gold_Radial-2" cx="-20.94" cy="230.98" r="10.88" gradientTransform="translate(-24.64 61.68) rotate(-30.3)" xlink:href="#Gold_Radial"/><radialGradient id="radial-gradient-23" cx="-20.94" cy="230.98" r="9.36" gradientTransform="translate(-24.64 61.68) rotate(-30.3)" gradientUnits="userSpaceOnUse"><stop offset="0" stop-color="#fffbcc"/><stop offset="0.16" stop-color="#fbf2bb"/><stop offset="0.47" stop-color="#f0d98e"/><stop offset="0.51" stop-color="#eed688"/><stop offset="1" stop-color="#ebbb10"/></radialGradient><radialGradient id="Gold_Radial-3" cx="162.33" cy="338.07" r="10.88" gradientTransform="matrix(-0.86, -0.5, -0.5, 0.86, 592.62, 61.68)" xlink:href="#Gold_Radial"/><radialGradient id="radial-gradient-24" cx="162.33" cy="338.07" r="9.36" gradientTransform="matrix(-0.86, -0.5, -0.5, 0.86, 592.62, 61.68)" xlink:href="#radial-gradient-23"/></defs><title>main_prize_frame_overlay-01</title><g class="cls-1"><g id="Layer_1" data-name="Layer 1"><path class="cls-2" d="M144.4,275.62a32,32,0,0,0-2.4-14.67c-3-7.26-12.11-10.39-12.11-10.39S127.69,261,132,267.95a24.1,24.1,0,0,0,6.46,6.14,111.74,111.74,0,0,1-13-4.63,31.26,31.26,0,0,0,.2-14.63c-1.67-7.52-9.93-12.08-9.93-12.08s-3.9,9.75-.94,17.14a24,24,0,0,0,5.28,7.11c-2.56-1.24-5.18-2.63-7.86-4.2-1.48-.8-3-1.67-4.43-2.6A30.58,30.58,0,0,0,110.53,246c-.34-7.54-7.52-13.35-7.52-13.35s-5.43,8.74-3.83,16.38c.56,2.68,2.46,5.8,4.25,8.28a102,102,0,0,1-11.34-9.48,29.92,29.92,0,0,0,5.11-13.32c1-7.33-5-14.16-5-14.16s-6.73,7.51-6.48,15.15c.09,2.63,1.35,5.9,2.62,8.57A118.68,118.68,0,0,1,79,232.73a29.37,29.37,0,0,0,7.08-11.87c2.17-6.91-2.4-14.52-2.4-14.52s-7.77,6.1-8.83,13.52a22.46,22.46,0,0,0,1,8.28,119.38,119.38,0,0,1-7.12-12.24,28.79,28.79,0,0,0,8.93-10.3c3.27-6.3.15-14.42.15-14.42s-8.54,4.57-10.82,11.55c-.79,2.41-.72,5.76-.45,8.58a111.58,111.58,0,0,1-5.11-13.64,28.14,28.14,0,0,0,10.52-8.49c4.23-5.53,2.6-13.89,2.6-13.89s-9,3-12.41,9.31c-1.25,2.33-1.74,5.86-1.93,8.74a102.37,102.37,0,0,1-2.68-15,27.51,27.51,0,0,0,11.69-6.43c5-4.62,4.88-13,4.88-13s-9.21,1.32-13.56,6.87c-1.61,2.05-2.7,5.42-3.37,8.18a100.17,100.17,0,0,1-.2-15.81A26.9,26.9,0,0,0,69.46,154c5.64-3.6,6.91-11.68,6.91-11.68s-9.11-.29-14.26,4.32c-2.06,1.85-3.79,5.28-4.91,7.94a110,110,0,0,1,2.94-16.46,26.45,26.45,0,0,0,12.8-1.95c6-2.51,8.66-10.1,8.66-10.1s-8.75-1.83-14.5,1.75c-2.23,1.38-4.41,4.25-5.94,6.59A118.73,118.73,0,0,1,66.91,119a25.85,25.85,0,0,0,12.68.3c6.27-1.4,10.08-8.27,10.08-8.27s-8.12-3.26-14.29-.78c-2.4,1-5,3.39-6.89,5.39a119.78,119.78,0,0,1,8.28-14.31,25.28,25.28,0,0,0,12.4,2.55c6.29-.28,11.13-6.27,11.13-6.27S93,93,86.65,94.39c-2.75.58-6.05,2.84-8.23,4.54A105.24,105.24,0,0,1,89.47,85.76a24.64,24.64,0,0,0,11.72,4.72c6.12.8,11.82-4.16,11.82-4.16s-6.27-5.61-12.64-5.4c-3,.1-7,2-9.38,3.34a82.72,82.72,0,0,1,6.52-5.66c2.46-2.05,4.9-3.91,7.29-5.61a24.15,24.15,0,0,0,10.49,6.52c5.76,1.81,12.11-2,12.11-2s-5.1-6.48-11.28-7.36c-2.89-.41-7,.74-9.51,1.58A115,115,0,0,1,121.69,63a23.48,23.48,0,0,0,9.12,8.26c5.26,2.73,12,.13,12,.13s-3.82-7.12-9.63-9c-3-1-7.9-.36-10.28,0a109.42,109.42,0,0,1,10.51-4.25c1.24.61,5.34,2.38,9.05,1.1a18.2,18.2,0,0,0,8.28-5.64S145,51.45,141.65,52c-4.26.73-7.74,4.87-8.45,5.77-2.37.74-5.19,1.73-8.37,3,2.05-1.41,5.81-4.24,7.26-7,2.86-5.42.67-13.19.67-13.19s-6.68,2.83-8.57,8.44a23.5,23.5,0,0,0-.82,12.34,112.21,112.21,0,0,0-15.58,8.27c1.86-1.86,4.79-5.11,5.69-7.94,1.92-6-1.67-13.37-1.67-13.37s-6.21,4-7.12,10A24,24,0,0,0,106,70.87c-3,2-6.14,4.24-9.3,6.79-1.4,1.06-2.8,2.19-4.18,3.39C94,78.81,95.88,75.6,96.24,73c.88-6.32-4-13.14-4-13.14S86.67,65,86.82,71.16a24.73,24.73,0,0,0,3.37,12A102,102,0,0,0,79,95.53C80,93,81.19,89.69,81.1,87.14c-.24-6.51-6.4-12.49-6.4-12.49S70.06,80.8,71.3,87a25.23,25.23,0,0,0,5.51,11.46,120.21,120.21,0,0,0-9,14.5c.64-2.71,1.26-6.39.69-9-1.4-6.49-8.63-11.41-8.63-11.41s-3.58,7-1.24,13A25.73,25.73,0,0,0,66.24,116,121.15,121.15,0,0,0,60,131.2c.12-2.74,0-6.16-.94-8.5-2.55-6.27-10.7-9.94-10.7-9.94S46,120.43,49.45,126a26.34,26.34,0,0,0,9.34,9.18,112.84,112.84,0,0,0-3.33,15.12,20.87,20.87,0,0,0-2.3-7.4c-3.67-5.85-12.51-8.09-12.51-8.09s-1,8.13,3.41,13.14a27,27,0,0,0,10.76,7.48,103.73,103.73,0,0,0-.42,15.15,21,21,0,0,0-3.58-6.9c-4.73-5.23-14-5.92-14-5.92s.42,8.35,5.76,12.6A27.53,27.53,0,0,0,54.76,176a103.37,103.37,0,0,0,1.94,14.23A21.1,21.1,0,0,0,52,184.15c-5.69-4.42-15.13-3.46-15.13-3.46s1.91,8.31,8,11.64A28.13,28.13,0,0,0,58,195.82a112.43,112.43,0,0,0,4.56,13.63,21.93,21.93,0,0,0-5.88-5.38c-6.5-3.43-15.81-.79-15.81-.79s3.39,8,10.12,10.28a28.79,28.79,0,0,0,13.86,1.17,121.52,121.52,0,0,0,6.89,12.76,22.31,22.31,0,0,0-7-4.46c-7.13-2.3-16,2-16,2s4.83,7.45,12,8.53a29.35,29.35,0,0,0,14.14-1.29,122.39,122.39,0,0,0,8.48,11,21.57,21.57,0,0,0-7.16-2.87c-7.58-1-15.75,4.85-15.75,4.85s6.17,6.63,13.56,6.45A30,30,0,0,0,87.76,248a109.74,109.74,0,0,0,9.77,9,20.74,20.74,0,0,0-7-1.38c-7.8.29-15,7.67-15,7.67s7.37,5.57,14.77,4.08a30.65,30.65,0,0,0,13-6c2.36,1.63,4.73,3.1,7.09,4.41,1.5.89,3,1.73,4.44,2.52a21.77,21.77,0,0,0-7.63-.19c-7.78,1.67-13.69,10.35-13.69,10.35s8.4,4.29,15.57,1.48a31.24,31.24,0,0,0,12.11-8.45,116.65,116.65,0,0,0,12.18,4.9,21.88,21.88,0,0,0-7.56,1.16c-7.53,3.06-11.92,12.83-11.92,12.83s9.2,2.82,15.91-1.27a31.89,31.89,0,0,0,10.65-10.59,100,100,0,0,0,17.41,3.27l.19-1.93.2-1.93A101.19,101.19,0,0,1,144.4,275.62Zm169.38-83.28c6.11-3.33,8-11.64,8-11.64s-9.44-1-15.13,3.46a21.16,21.16,0,0,0-4.71,6.09A103,103,0,0,0,303.91,176a27.52,27.52,0,0,0,12.19-5.62c5.34-4.26,5.76-12.6,5.76-12.6s-9.27.68-14,5.92a21.08,21.08,0,0,0-3.58,6.9,103.31,103.31,0,0,0-.42-15.15A27,27,0,0,0,314.61,148c4.42-5,3.41-13.14,3.41-13.14s-8.84,2.24-12.51,8.09a20.93,20.93,0,0,0-2.31,7.4,112.76,112.76,0,0,0-3.33-15.12,26.34,26.34,0,0,0,9.33-9.18c3.42-5.59,1.06-13.26,1.06-13.26s-8.15,3.66-10.71,9.94c-.95,2.34-1.05,5.76-.93,8.5A121.16,121.16,0,0,0,292.43,116,25.69,25.69,0,0,0,300,105.48c2.34-6-1.23-13-1.23-13s-7.24,4.92-8.64,11.41c-.56,2.62.06,6.31.69,9a120.33,120.33,0,0,0-9-14.5A25.23,25.23,0,0,0,287.37,87c1.24-6.17-3.4-12.32-3.4-12.32s-6.16,6-6.4,12.49c-.09,2.56,1.06,5.9,2.12,8.39a102.64,102.64,0,0,0-11.21-12.36,24.75,24.75,0,0,0,3.37-12c.15-6.17-5.38-11.31-5.38-11.31s-4.92,6.82-4,13.14c.36,2.61,2.2,5.83,3.69,8.07-1.39-1.2-2.78-2.34-4.19-3.39-3.16-2.55-6.27-4.8-9.3-6.79A24,24,0,0,0,254,58.42c-.91-6-7.12-10-7.12-10s-3.59,7.42-1.67,13.37c.91,2.82,3.84,6.07,5.7,7.94a112,112,0,0,0-15.58-8.27,23.57,23.57,0,0,0-.82-12.34c-1.89-5.61-8.57-8.44-8.57-8.44s-2.19,7.77.67,13.19c1.45,2.74,5.21,5.57,7.26,7-3.18-1.32-6-2.3-8.37-3-.71-.9-4.19-5-8.45-5.77-3.4-.58-9.13,1.61-9.13,1.61a18.21,18.21,0,0,0,8.28,5.64c3.72,1.28,7.82-.5,9.05-1.1a109.39,109.39,0,0,1,10.51,4.25c-2.38-.41-7.24-1-10.29,0-5.81,1.91-9.63,9-9.63,9s6.77,2.6,12-.13A23.47,23.47,0,0,0,237,63a114.71,114.71,0,0,1,15.08,8.73c-2.5-.85-6.62-2-9.51-1.59-6.18.89-11.28,7.36-11.28,7.36s6.34,3.81,12.11,2A24.18,24.18,0,0,0,253.87,73c2.39,1.7,4.83,3.56,7.29,5.61a83.7,83.7,0,0,1,6.52,5.66c-2.35-1.3-6.36-3.24-9.39-3.34-6.37-.21-12.64,5.4-12.64,5.4s5.7,5,11.82,4.16a24.61,24.61,0,0,0,11.72-4.72,105.15,105.15,0,0,1,11.05,13.16c-2.18-1.7-5.48-4-8.23-4.54-6.37-1.34-13.65,3.18-13.65,3.18s4.85,6,11.13,6.27a25.24,25.24,0,0,0,12.4-2.55,119.24,119.24,0,0,1,8.28,14.32c-1.87-2-4.48-4.43-6.89-5.39-6.16-2.48-14.28.78-14.28.78s3.81,6.88,10.08,8.27a25.84,25.84,0,0,0,12.68-.3,119,119,0,0,1,5.74,15.44c-1.53-2.34-3.71-5.21-5.94-6.6-5.75-3.58-14.49-1.75-14.49-1.75s2.61,7.59,8.66,10.1a26.44,26.44,0,0,0,12.8,1.95,110.37,110.37,0,0,1,2.94,16.46c-1.12-2.66-2.85-6.09-4.91-7.94-5.14-4.61-14.26-4.32-14.26-4.32s1.28,8.08,6.92,11.68a26.91,26.91,0,0,0,12.56,4.23,100.68,100.68,0,0,1-.21,15.81c-.67-2.77-1.76-6.14-3.37-8.19-4.36-5.55-13.56-6.87-13.56-6.87s-.15,8.35,4.88,13a27.51,27.51,0,0,0,11.69,6.43,102.36,102.36,0,0,1-2.68,15c-.19-2.89-.69-6.42-1.93-8.74-3.39-6.35-12.41-9.31-12.41-9.31s-1.63,8.37,2.6,13.89a28.17,28.17,0,0,0,10.52,8.49,111.53,111.53,0,0,1-5.11,13.64c.28-2.83.34-6.18-.45-8.58-2.29-7-10.82-11.55-10.82-11.55s-3.12,8.12.15,14.42a28.82,28.82,0,0,0,8.93,10.3,118.52,118.52,0,0,1-7.12,12.24,22.52,22.52,0,0,0,1-8.28c-1.06-7.42-8.83-13.52-8.83-13.52s-4.58,7.6-2.41,14.52a29.28,29.28,0,0,0,7.08,11.86A119.21,119.21,0,0,1,270.31,244c1.28-2.67,2.54-5.93,2.62-8.57.25-7.64-6.48-15.15-6.48-15.15s-5.94,6.83-5,14.16a30,30,0,0,0,5.11,13.32,101.53,101.53,0,0,1-11.33,9.48c1.79-2.48,3.69-5.6,4.25-8.28,1.6-7.63-3.83-16.38-3.83-16.38s-7.18,5.81-7.52,13.35a30.6,30.6,0,0,0,2.75,14.24c-1.48.93-3,1.8-4.43,2.6-2.68,1.57-5.3,3-7.85,4.2a24,24,0,0,0,5.28-7.11c3-7.39-.94-17.14-.94-17.14s-8.25,4.57-9.93,12.08a31.24,31.24,0,0,0,.2,14.63,111.77,111.77,0,0,1-13,4.63,24.08,24.08,0,0,0,6.46-6.14c4.29-6.9,2.09-17.39,2.09-17.39s-9.1,3.13-12.11,10.39a32,32,0,0,0-2.4,14.67,101.13,101.13,0,0,1-13.88,2.33l.19,1.93.2,1.93a100,100,0,0,0,17.41-3.27,31.86,31.86,0,0,0,10.65,10.59c6.71,4.1,15.91,1.27,15.91,1.27s-4.39-9.78-11.92-12.83a21.86,21.86,0,0,0-7.56-1.16,116.68,116.68,0,0,0,12.18-4.9A31.24,31.24,0,0,0,249.55,280c7.17,2.81,15.57-1.48,15.57-1.48s-5.9-8.68-13.69-10.35a21.78,21.78,0,0,0-7.63.19q2.2-1.18,4.44-2.52c2.36-1.3,4.73-2.78,7.09-4.41a30.71,30.71,0,0,0,13,6c7.4,1.49,14.78-4.08,14.78-4.08s-7.17-7.38-15-7.67a20.73,20.73,0,0,0-7,1.38,109.66,109.66,0,0,0,9.77-9,30,30,0,0,0,13.73,3.66c7.39.18,13.56-6.45,13.56-6.45s-8.18-5.9-15.76-4.85a21.63,21.63,0,0,0-7.16,2.87,122,122,0,0,0,8.48-11,29.34,29.34,0,0,0,14.14,1.29c7.17-1.09,12-8.53,12-8.53s-8.9-4.3-16-2a22.36,22.36,0,0,0-7,4.46,122.12,122.12,0,0,0,6.89-12.76,28.77,28.77,0,0,0,13.86-1.17c6.74-2.27,10.12-10.28,10.12-10.28s-9.32-2.64-15.81.79a21.87,21.87,0,0,0-5.88,5.38,113.28,113.28,0,0,0,4.56-13.63A28.14,28.14,0,0,0,313.78,192.34Z"/><path class="cls-3" d="M268.53,170a89.2,89.2,0,1,1-89.2-89.2A89.2,89.2,0,0,1,268.53,170ZM179,99.71a69.5,69.5,0,1,0,69.5,69.5A69.5,69.5,0,0,0,179,99.71Z"/><path class="cls-4" d="M279.61,307.67a457.82,457.82,0,0,1,62.84,14.22l-14.63-29.33,23.44-17.42a424.94,424.94,0,0,0-62.4-17.48Z"/><path class="cls-5" d="M79,307.67a457.86,457.86,0,0,0-62.84,14.22l14.63-29.33L7.4,275.14a424.63,424.63,0,0,1,62.4-17.48Z"/><path class="cls-6" d="M77.43,298.46l1.61,9.2L52.68,304S69.21,300.13,77.43,298.46Z"/><path class="cls-7" d="M281.23,298.46l-1.62,9.2L306,304S289.45,300.13,281.23,298.46Z"/><path class="cls-8" d="M179.33,235.65c-49.07,0-95.17,6.6-135.19,18.14L52.68,304c37.1-8.64,80.4-13.62,126.65-13.62s89.55,5,126.64,13.62l8.54-50.21C274.5,242.24,228.4,235.65,179.33,235.65Z"/><polygon class="cls-9" points="200.65 70.97 157.62 70.97 157.62 66.14 200.65 66.47 200.65 70.97"/><polygon class="cls-10" points="191.41 60.6 185.49 52.71 179.02 60.57 172.55 52.71 166.64 60.57 157.95 52.71 157.62 64.34 200.41 64.34 200.65 52.71 191.41 60.6"/><ellipse class="cls-11" cx="158.02" cy="49.39" rx="1.84" ry="1.59"/><ellipse class="cls-12" cx="172.29" cy="49.39" rx="1.84" ry="1.59"/><ellipse class="cls-13" cx="185.43" cy="49.39" rx="1.84" ry="1.59"/><ellipse class="cls-14" cx="200.65" cy="49.39" rx="1.84" ry="1.59"/><path class="cls-15" d="M168.72,212.06c-3.91-1.14-7.77-2.45-11.59-3.9a28.26,28.26,0,0,0-5.69-1.64,31.08,31.08,0,0,0-5.86-.5,18.91,18.91,0,0,0-2.86.25,8.94,8.94,0,0,0-2.58.81,4.74,4.74,0,0,0-1,.71,7.79,7.79,0,0,0-.9,1,3,3,0,0,0-.79,2,2.64,2.64,0,0,0,1.43,1.77,8,8,0,0,0,1.27.62,5.08,5.08,0,0,0,1.32.3,6.38,6.38,0,0,0,5-2.27v0a.31.31,0,0,1,.43,0,.3.3,0,0,1,0,.41,8.53,8.53,0,0,1-2.38,2.11,6.22,6.22,0,0,1-3.14.9,6.1,6.1,0,0,1-1.67-.22,9.88,9.88,0,0,1-1.53-.56,5.82,5.82,0,0,1-1.47-1,3.55,3.55,0,0,1-1-1.67,3.73,3.73,0,0,1,.07-2,5.43,5.43,0,0,1,.79-1.64,8.16,8.16,0,0,1,1.14-1.31,6.45,6.45,0,0,1,1.47-1,13.94,13.94,0,0,1,6.41-1.25,31.06,31.06,0,0,1,12.16,2.77c3.7,1.65,7.45,3.18,11.2,4.76a.3.3,0,0,1,.16.4A.31.31,0,0,1,168.72,212.06Z"/><path class="cls-16" d="M175.55,211.91a15.76,15.76,0,0,1-2.64.39,5,5,0,0,1-2.67-.53,6.66,6.66,0,0,1-2.06-1.84,3.83,3.83,0,0,1-.65-2.79,3.66,3.66,0,0,1,1.57-2.46,2.69,2.69,0,0,1,2.94.07,2.57,2.57,0,0,1,.56.5l.12.16.1.14a2.14,2.14,0,0,1,.17.35,1.92,1.92,0,0,1-.06,1.46,1.65,1.65,0,0,1-1.08.94,1.31,1.31,0,0,1-1.31-.47.1.1,0,0,1,0-.15.11.11,0,0,1,.14,0,1,1,0,0,0,1.07.31,1.3,1.3,0,0,0,.78-.81,1.45,1.45,0,0,0,0-1.11,1.7,1.7,0,0,0-.14-.23l-.1-.13-.1-.09a2,2,0,0,0-2.54-.18,3.08,3.08,0,0,0-1.26,1.85,3,3,0,0,0,.34,2.27,6,6,0,0,0,1.76,1.77,4.63,4.63,0,0,0,2.42.61,15.72,15.72,0,0,0,2.61-.24.1.1,0,0,1,0,.2Z"/><path class="cls-17" d="M189.68,212.06c3.92-1.14,7.77-2.45,11.59-3.9a28.38,28.38,0,0,1,5.69-1.64,31.13,31.13,0,0,1,5.86-.5,18.91,18.91,0,0,1,2.86.25,8.92,8.92,0,0,1,2.58.81,4.7,4.7,0,0,1,1,.71,7.36,7.36,0,0,1,.9,1,3,3,0,0,1,.79,2,2.65,2.65,0,0,1-1.43,1.77,8,8,0,0,1-1.27.62,5.06,5.06,0,0,1-1.32.3,6.37,6.37,0,0,1-5-2.27l0,0a.31.31,0,0,0-.43,0,.3.3,0,0,0,0,.41,8.54,8.54,0,0,0,2.38,2.11,6.23,6.23,0,0,0,3.15.9,6.14,6.14,0,0,0,1.68-.22,10,10,0,0,0,1.53-.56,5.84,5.84,0,0,0,1.46-1,3.5,3.5,0,0,0,1-1.67,3.73,3.73,0,0,0-.06-2,5.56,5.56,0,0,0-.8-1.64,8.13,8.13,0,0,0-1.14-1.31,6.5,6.5,0,0,0-1.47-1,14,14,0,0,0-6.41-1.25,28.65,28.65,0,0,0-6.24.77,29,29,0,0,0-5.92,2c-3.69,1.65-7.45,3.18-11.2,4.76a.3.3,0,0,0-.16.4A.31.31,0,0,0,189.68,212.06Z"/><path class="cls-18" d="M182.85,211.91a15.83,15.83,0,0,0,2.64.39,5,5,0,0,0,2.67-.53,6.7,6.7,0,0,0,2.06-1.84,3.82,3.82,0,0,0,.65-2.79,3.67,3.67,0,0,0-1.57-2.46,2.7,2.7,0,0,0-2.95.07,2.66,2.66,0,0,0-.56.5l-.12.16-.09.14a2,2,0,0,0-.18.35,1.92,1.92,0,0,0,.06,1.46,1.66,1.66,0,0,0,1.09.94,1.31,1.31,0,0,0,1.31-.47.1.1,0,0,0,0-.15.11.11,0,0,0-.15,0,1,1,0,0,1-1.07.31,1.31,1.31,0,0,1-.79-.81,1.49,1.49,0,0,1,0-1.11,2,2,0,0,1,.14-.23l.1-.13.1-.09a2,2,0,0,1,2.55-.18,3.11,3.11,0,0,1,1.26,1.85,3,3,0,0,1-.34,2.27,6,6,0,0,1-1.76,1.77,4.65,4.65,0,0,1-2.42.61,15.76,15.76,0,0,1-2.61-.24.1.1,0,0,0-.11.08A.1.1,0,0,0,182.85,211.91Z"/><path class="cls-19" d="M179.2,205.28a10.5,10.5,0,0,0-1.84,1.44H181A10.51,10.51,0,0,0,179.2,205.28Z"/><path class="cls-20" d="M179.2,212s.41-.76.89-1.69h-1.77C178.79,211.23,179.2,212,179.2,212Z"/><path class="cls-21" d="M177.11,207.73c.16.41.41,1,.7,1.55h2.79c.28-.58.53-1.14.69-1.55Z"/><path class="cls-22" d="M189.68,126.54c3.91,1.14,7.77,2.45,11.59,3.9a28.25,28.25,0,0,0,5.69,1.64,31.07,31.07,0,0,0,5.86.5,18.91,18.91,0,0,0,2.86-.25,8.94,8.94,0,0,0,2.58-.81,4.74,4.74,0,0,0,1-.71,7.79,7.79,0,0,0,.9-1,3,3,0,0,0,.79-2,2.64,2.64,0,0,0-1.43-1.77,8,8,0,0,0-1.27-.62,5.08,5.08,0,0,0-1.32-.3,6.38,6.38,0,0,0-5,2.27v0a.31.31,0,0,1-.43,0,.3.3,0,0,1,0-.41,8.52,8.52,0,0,1,2.38-2.11A6.22,6.22,0,0,1,217,124a6.1,6.1,0,0,1,1.67.22,9.89,9.89,0,0,1,1.53.56,5.82,5.82,0,0,1,1.46,1,3.55,3.55,0,0,1,1,1.67,3.73,3.73,0,0,1-.07,2,5.43,5.43,0,0,1-.79,1.64,8.15,8.15,0,0,1-1.14,1.31,6.45,6.45,0,0,1-1.47,1,13.94,13.94,0,0,1-6.41,1.25,31.06,31.06,0,0,1-12.16-2.77c-3.7-1.65-7.45-3.18-11.2-4.76a.3.3,0,0,1-.17-.4A.31.31,0,0,1,189.68,126.54Z"/><path class="cls-23" d="M182.85,126.69a15.77,15.77,0,0,1,2.64-.39,5,5,0,0,1,2.67.53,6.67,6.67,0,0,1,2.06,1.84,3.83,3.83,0,0,1,.65,2.79,3.66,3.66,0,0,1-1.57,2.46,2.69,2.69,0,0,1-2.94-.07,2.56,2.56,0,0,1-.56-.5l-.12-.16-.1-.14a2.15,2.15,0,0,1-.17-.35,1.92,1.92,0,0,1,.06-1.46,1.65,1.65,0,0,1,1.08-.94,1.31,1.31,0,0,1,1.31.47.1.1,0,0,1,0,.15.11.11,0,0,1-.14,0,1,1,0,0,0-1.07-.31,1.3,1.3,0,0,0-.78.81,1.45,1.45,0,0,0,0,1.11,1.69,1.69,0,0,0,.14.23l.1.13.1.09a2,2,0,0,0,2.54.18,3.08,3.08,0,0,0,1.26-1.85,3,3,0,0,0-.34-2.27,6,6,0,0,0-1.76-1.77,4.63,4.63,0,0,0-2.42-.61,15.72,15.72,0,0,0-2.61.24.1.1,0,0,1,0-.2Z"/><path class="cls-24" d="M168.72,126.54c-3.92,1.14-7.77,2.45-11.59,3.9a28.37,28.37,0,0,1-5.69,1.64,31.12,31.12,0,0,1-5.86.5,18.91,18.91,0,0,1-2.86-.25,8.93,8.93,0,0,1-2.58-.81,4.69,4.69,0,0,1-1-.71,7.37,7.37,0,0,1-.9-1,3,3,0,0,1-.79-2,2.65,2.65,0,0,1,1.43-1.77,8,8,0,0,1,1.27-.62,5.06,5.06,0,0,1,1.32-.3,6.37,6.37,0,0,1,5,2.27v0a.31.31,0,0,0,.43,0,.29.29,0,0,0,0-.41,8.54,8.54,0,0,0-2.38-2.11,6.23,6.23,0,0,0-3.15-.9,6.13,6.13,0,0,0-1.68.22,10,10,0,0,0-1.53.56,5.84,5.84,0,0,0-1.46,1,3.5,3.5,0,0,0-1,1.67,3.73,3.73,0,0,0,.06,2,5.56,5.56,0,0,0,.8,1.64,8.13,8.13,0,0,0,1.14,1.31,6.5,6.5,0,0,0,1.47,1,14,14,0,0,0,6.41,1.25,28.65,28.65,0,0,0,6.24-.77,29,29,0,0,0,5.92-2c3.69-1.65,7.45-3.18,11.2-4.76a.3.3,0,0,0,.16-.4A.31.31,0,0,0,168.72,126.54Z"/><path class="cls-25" d="M175.55,126.69a15.84,15.84,0,0,0-2.64-.39,5,5,0,0,0-2.67.53,6.7,6.7,0,0,0-2.06,1.84,3.82,3.82,0,0,0-.65,2.79,3.67,3.67,0,0,0,1.57,2.46,2.69,2.69,0,0,0,2.95-.07,2.65,2.65,0,0,0,.55-.5l.12-.16.09-.14a2.05,2.05,0,0,0,.18-.35,1.92,1.92,0,0,0-.06-1.46,1.66,1.66,0,0,0-1.09-.94,1.31,1.31,0,0,0-1.31.47.1.1,0,0,0,0,.15.11.11,0,0,0,.15,0,1,1,0,0,1,1.07-.31,1.31,1.31,0,0,1,.79.81,1.49,1.49,0,0,1,0,1.11,2,2,0,0,1-.14.23l-.1.13-.1.09a2,2,0,0,1-2.55.18,3.11,3.11,0,0,1-1.26-1.85,3,3,0,0,1,.34-2.27,6,6,0,0,1,1.76-1.77,4.65,4.65,0,0,1,2.42-.61,15.77,15.77,0,0,1,2.61.24.1.1,0,0,0,.11-.08A.1.1,0,0,0,175.55,126.69Z"/><path class="cls-26" d="M179.2,133.32a10.5,10.5,0,0,0,1.84-1.44h-3.69A10.52,10.52,0,0,0,179.2,133.32Z"/><path class="cls-27" d="M179.2,126.61s-.41.76-.89,1.69h1.77C179.61,127.37,179.2,126.61,179.2,126.61Z"/><path class="cls-28" d="M181.29,130.87c-.16-.41-.41-1-.7-1.55H177.8c-.28.57-.53,1.14-.69,1.55Z"/><ellipse class="cls-29" cx="178.32" cy="313.99" rx="128" ry="7.35"/><polygon class="cls-30" points="68.46 262.52 74.96 266.81 82.18 263.89 80.11 271.39 85.11 277.35 77.33 277.7 73.21 284.31 70.48 277.02 62.92 275.14 69.01 270.28 68.46 262.52"/><polygon class="cls-31" points="69.21 263.8 74.8 267.49 81.01 264.97 79.23 271.43 83.53 276.56 76.84 276.86 73.3 282.54 70.94 276.27 64.44 274.65 69.68 270.48 69.21 263.8"/><polygon class="cls-32" points="287.25 262.52 280.75 266.81 273.54 263.89 275.61 271.39 270.6 277.35 278.38 277.7 282.5 284.31 285.24 277.02 292.79 275.14 286.7 270.28 287.25 262.52"/><polygon class="cls-33" points="286.5 263.8 280.91 267.49 274.7 264.97 276.49 271.43 272.18 276.56 278.87 276.86 282.42 282.54 284.77 276.27 291.27 274.65 286.03 270.48 286.5 263.8"/><path class="cls-34" d="M143.05,278.06l-2.13.74c-1.55-8.75-2.34-13.13-3.95-21.87l0,0c-.3,1.08-1,3.58-1.94,7.51s-1.93,7.87-2.81,11.83l-1.84.12q-1.93-5.29-4.31-11.42c-1.59-4.09-2.54-6.47-2.81-7.14h0c0,.34-.22,2.87-.56,7.58s-.61,9.57-.84,14.6l-2.08-.39q.66-8.55,1.22-16.92c.37-5.58.59-8.61.63-9.09l2.15-.61c.11.29.91,2.35,2.38,6.18l5.07,13.23h.08q1.44-6.11,3.12-13c1.12-4.6,1.72-7,1.76-7.16l2.09.12c0,.29.58,3.13,1.58,8.54S141.9,272,143.05,278.06Z"/><path class="cls-34" d="M155.59,266.75q.15,4.87.24,7.93t.09,3.3l-1.23.19a26.59,26.59,0,0,1-2.84.23,8.58,8.58,0,0,1-2.21-.21,6.19,6.19,0,0,1-1.94-.77,5.42,5.42,0,0,1-1.81-1.91,6.44,6.44,0,0,1-.8-3,6.34,6.34,0,0,1,.64-3.26,6.09,6.09,0,0,1,2.09-2.3,9.77,9.77,0,0,1,2.3-1,20.18,20.18,0,0,1,3.32-.76,7,7,0,0,0-.61-2.5,3.23,3.23,0,0,0-1.37-1.45,4.23,4.23,0,0,0-1.35-.45,8.71,8.71,0,0,0-1.72-.08q-.61,0-1,.08l-1.16.15.11-2.62.81-.1q.61-.07,1.66-.12a8,8,0,0,1,2.89.37,4.67,4.67,0,0,1,2.15,1.49,7,7,0,0,1,1.25,2.49A18.22,18.22,0,0,1,155.59,266.75Zm-1.9,4.8-.06-1.69q0-1-.09-2.36a17.71,17.71,0,0,0-2.06.42,8.69,8.69,0,0,0-2.46,1,4.07,4.07,0,0,0-1.29,1.29,3.44,3.44,0,0,0-.5,2.07,4.12,4.12,0,0,0,.59,2.13,3.3,3.3,0,0,0,1.4,1.19,5.36,5.36,0,0,0,1.47.42,9.28,9.28,0,0,0,1.68.09l.65,0,.81-.07q0-.14,0-1.3T153.69,271.55Z"/><path class="cls-34" d="M162.54,254.06l-2.41.06-.08-3.38,2.42-.06Zm.4,23.69-2.1,0q0-.31-.06-3.87t-.13-5.87q-.05-2-.12-4.45t-.19-5.68l2.16-.05q0,2.83.07,5.29t.08,4.39q.1,4.58.2,7.35T162.94,277.76Z"/><path class="cls-34" d="M179,277.57h-2.1q0-.55,0-3.63t0-3.81q0-1,0-3t0-2.92a7.18,7.18,0,0,0-.61-3.24,2,2,0,0,0-1.94-1,4.33,4.33,0,0,0-2,.72,15.25,15.25,0,0,0-2.45,1.84q0,.22,0,2.34t0,3.87q0,2.28.11,5.5t.08,3.38l-2.1,0q0-.14,0-2.41t-.08-6.75q0-2.06-.08-4.83t-.14-5.89l2.13,0,0,2.26v0a16.86,16.86,0,0,1,3.16-2.23,5.1,5.1,0,0,1,2.12-.63,3.22,3.22,0,0,1,2.81,1.57,7.7,7.7,0,0,1,1.06,4.33q0,2.48,0,4.27t0,2.92q0,1.79,0,4.47T179,277.57Z"/><path class="cls-34" d="M195.93,260.42a10.61,10.61,0,0,1-1.38,5.16,6.65,6.65,0,0,1-3.45,3.09,9.27,9.27,0,0,1-2,.48,17.22,17.22,0,0,1-2.41.13c0,3.32,0,5,0,8.31l-2.2,0q0-1.18.07-4.37t.08-9.87q0-2.12,0-5.21t0-6.86h2.09a16,16,0,0,1,4,.48,6.51,6.51,0,0,1,2.78,1.52,7.15,7.15,0,0,1,1.85,3A12.2,12.2,0,0,1,195.93,260.42Zm-2.31,0a8.34,8.34,0,0,0-.58-3.46,5,5,0,0,0-1.94-2.28,4.43,4.43,0,0,0-1.77-.66,14.69,14.69,0,0,0-2-.15h-.51q0,.22-.05,2.95t-.06,4.32q0,1.45,0,3.44t0,2.26h.54a11.44,11.44,0,0,0,1.92-.16,4.68,4.68,0,0,0,1.76-.63,5.13,5.13,0,0,0,2-2.15A8.07,8.07,0,0,0,193.62,260.38Z"/><path class="cls-34" d="M207.57,260.49a17.18,17.18,0,0,0-2.33,1,37.21,37.21,0,0,0-3.61,2.09q0,.22-.07,2t-.1,3.27q-.06,2.32-.12,5.5t-.06,3.54l-2.1-.06q0-.33.08-2.2t.19-6.38q0-1.83.11-5.11t.11-6.19l2.12.06-.08,3v0a27.18,27.18,0,0,1,3.1-2.09,14.48,14.48,0,0,1,2.44-1.18Z"/><path class="cls-34" d="M213,254.56l-2.41-.1.13-3.38,2.42.1Zm-1.11,23.67-2.1-.08q0-.31.18-3.87t.25-5.87q.08-2,.17-4.45t.17-5.69l2.16.09q-.14,2.83-.27,5.29t-.2,4.39q-.19,4.57-.27,7.34T211.9,278.23Z"/><path class="cls-34" d="M226.58,278.86l-2.24-.14-3.21-.19-3.21-.16-2-.09-.35-1.87q1.43-2.43,3.86-6.51t5-8.32v0l-1.19-.08-1.16-.07q-1.3-.07-3.32-.14l-2.13-.07.11-2.45,2.22.12,2.58.14,3,.15,2.19.12.58,1.89q-2.58,4-5.5,9c-1.95,3.29-3.07,5.21-3.4,5.75v0l1.33.08,1.77.1c1.8.1,3.1.16,3.92.19l1.31,0Z"/><path class="cls-34" d="M241.08,269.3c-3.89-.31-5.84-.45-9.73-.7a12.08,12.08,0,0,0,.35,3.85,6.94,6.94,0,0,0,1.61,3,5.19,5.19,0,0,0,1.68,1.21,7,7,0,0,0,2.35.54q.76.06,1.4,0l.79,0-.44,2.59h-.71q-.6,0-1.41-.06a8.06,8.06,0,0,1-3.64-1.08,7.3,7.3,0,0,1-2.44-2.42,11.35,11.35,0,0,1-1.28-3.15,13.31,13.31,0,0,1-.35-4.18,16.36,16.36,0,0,1,.72-4,12.45,12.45,0,0,1,1.6-3.26,5.89,5.89,0,0,1,2.13-1.92,4.68,4.68,0,0,1,2.52-.55,4.52,4.52,0,0,1,2.21.71,4.86,4.86,0,0,1,1.58,1.79,9.67,9.67,0,0,1,1,3.18A20.45,20.45,0,0,1,241.08,269.3Zm-1.92-2.36a8.08,8.08,0,0,0-.86-3.9,2.83,2.83,0,0,0-2.35-1.56,3,3,0,0,0-2.64,1.22,8.82,8.82,0,0,0-1.66,3.7C234.65,266.61,236.15,266.71,239.16,266.94Z"/></g></g></svg>