<?xml version="1.0" encoding="UTF-8" standalone="no"?>
<svg width="17px" height="20px" viewBox="0 0 17 20" version="1.1" xmlns="http://www.w3.org/2000/svg" xmlns:xlink="http://www.w3.org/1999/xlink">
    <!-- Generator: Sketch 46.2 (44496) - http://www.bohemiancoding.com/sketch -->
    <title>Page 1</title>
    <desc>Created with Sketch.</desc>
    <defs></defs>
    <g id="Artwork" stroke="none" stroke-width="1" fill="none" fill-rule="evenodd">
        <g id="Mobile-Home" transform="translate(-321.000000, -92.000000)">
            <g id="Page-1" transform="translate(322.000000, 93.000000)">
                <path d="M5.37161685,16.8333341 L10.1398196,18.395407 L10.1398196,10.5307754 C10.0280762,10.7256699 9.91662463,10.920856 9.80546479,11.1166257 L9.80546479,17.9487253 L5.70597164,16.5827138 L5.70597164,9.19277277 C5.59422828,8.99758659 5.48277669,8.77351637 5.37161685,8.57862195 L5.37161685,16.8333341 Z" id="Fill-1" fill="#003D99"></path>
                <path d="M5.37161685,16.8333341 L10.1398196,18.395407 L10.1398196,10.5307754 C10.0280762,10.7256699 9.91662463,10.920856 9.80546479,11.1166257 L9.80546479,17.9487253 L5.70597164,16.5827138 L5.70597164,9.19277277 C5.59422828,8.99758659 5.48277669,8.77351637 5.37161685,8.57862195 L5.37161685,16.8333341 Z" id="Stroke-3" stroke="#003D99" stroke-width="0.5"></path>
                <path d="M15.466885,16.8333341 L10.697807,18.4225405 L10.697807,9.55484458 C10.8092586,9.33164963 10.9207102,9.13587994 11.0324535,8.91297674 L11.0324535,17.9767341 L15.1319467,16.6104309 L15.1319467,5.26016525 L12.3156057,6.20808734 C12.3716232,6.06891872 12.4270573,5.92887483 12.4553578,5.78941446 L15.466885,4.81435887 L15.466885,16.8333341 Z" id="Fill-5" fill="#003D99"></path>
                <path d="M15.466885,16.8333341 L10.697807,18.4225405 L10.697807,9.55484458 C10.8092586,9.33164963 10.9207102,9.13587994 11.0324535,8.91297674 L11.0324535,17.9767341 L15.1319467,16.6104309 L15.1319467,5.26016525 L12.3156057,6.20808734 C12.3716232,6.06891872 12.4270573,5.92887483 12.4553578,5.78941446 L15.466885,4.81435887 L15.466885,16.8333341 Z" id="Stroke-7" stroke="#003D99" stroke-width="0.5"></path>
                <path d="M8.29973038,11.8971078 C8.60636815,11.3675669 9.41512162,10.0561142 10.1681493,8.63437693 C11.0889379,6.90512663 11.9525419,4.98127368 11.9525419,4.03335159 L11.9525419,4.00534281 C11.9525419,3.53065237 11.8688073,3.05683721 11.7016299,2.63816433 C11.5067355,2.19206618 11.2281065,1.80111032 10.8928764,1.46675553 C10.5585216,1.13240074 10.1398488,0.881780525 9.69375061,0.68688611 C9.275953,0.518833441 8.80126256,0.407090086 8.29973038,0.407090086 C7.79732292,0.407090086 7.32350776,0.518833441 6.90454311,0.68688611 C6.43131147,0.881780525 6.04093912,1.13240074 5.70570906,1.46675553 C5.34334549,1.80111032 5.06500825,2.19206618 4.89783086,2.63816433 C4.70176941,3.05683721 4.61803484,3.53065237 4.61803484,4.03335159 C4.61803484,4.98127368 5.51052288,6.90512663 6.43131147,8.63437693 C7.18433914,10.0561142 7.96479207,11.3675669 8.29973038,11.8971078 L8.29973038,11.8971078 Z M12.3157807,4.03335159 C12.3157807,6.15268247 8.49491655,12.2603467 8.43919075,12.3160725 L8.43919075,12.3437895 L8.29973038,12.5666927 L8.16027,12.3437895 L8.16027,12.3160725 C8.04911017,12.1754451 4.25596303,6.1246737 4.25596303,4.03335159 C4.25596303,3.47492657 4.36712286,2.97339439 4.56230904,2.49870395 C4.75749521,2.02488879 5.06500825,1.60650766 5.42678831,1.21613531 C5.81716065,0.853771747 6.26384231,0.574267481 6.73765748,0.379373066 C7.24006494,0.184478651 7.74159712,0.073027054 8.29973038,0.073027054 C8.82927134,0.073027054 9.35939582,0.184478651 9.83321099,0.379373066 C10.3356184,0.574267481 10.7814248,0.853771747 11.1443719,1.21613531 C11.5067355,1.60650766 11.8133733,2.02488879 12.0082677,2.49870395 C12.2034538,2.91796035 12.2880637,3.39148376 12.3157807,3.86500716 L12.3157807,4.03335159 Z" id="Fill-9" fill="#003D98"></path>
                <path d="M8.29973038,11.8971078 C8.60636815,11.3675669 9.41512162,10.0561142 10.1681493,8.63437693 C11.0889379,6.90512663 11.9525419,4.98127368 11.9525419,4.03335159 L11.9525419,4.00534281 C11.9525419,3.53065237 11.8688073,3.05683721 11.7016299,2.63816433 C11.5067355,2.19206618 11.2281065,1.80111032 10.8928764,1.46675553 C10.5585216,1.13240074 10.1398488,0.881780525 9.69375061,0.68688611 C9.275953,0.518833441 8.80126256,0.407090086 8.29973038,0.407090086 C7.79732292,0.407090086 7.32350776,0.518833441 6.90454311,0.68688611 C6.43131147,0.881780525 6.04093912,1.13240074 5.70570906,1.46675553 C5.34334549,1.80111032 5.06500825,2.19206618 4.89783086,2.63816433 C4.70176941,3.05683721 4.61803484,3.53065237 4.61803484,4.03335159 C4.61803484,4.98127368 5.51052288,6.90512663 6.43131147,8.63437693 C7.18433914,10.0561142 7.96479207,11.3675669 8.29973038,11.8971078 Z M12.3157807,4.03335159 C12.3157807,6.15268247 8.49491655,12.2603467 8.43919075,12.3160725 L8.43919075,12.3437895 L8.29973038,12.5666927 L8.16027,12.3437895 L8.16027,12.3160725 C8.04911017,12.1754451 4.25596303,6.1246737 4.25596303,4.03335159 C4.25596303,3.47492657 4.36712286,2.97339439 4.56230904,2.49870395 C4.75749521,2.02488879 5.06500825,1.60650766 5.42678831,1.21613531 C5.81716065,0.853771747 6.26384231,0.574267481 6.73765748,0.379373066 C7.24006494,0.184478651 7.74159712,0.073027054 8.29973038,0.073027054 C8.82927134,0.073027054 9.35939582,0.184478651 9.83321099,0.379373066 C10.3356184,0.574267481 10.7814248,0.853771747 11.1443719,1.21613531 C11.5067355,1.60650766 11.8133733,2.02488879 12.0082677,2.49870395 C12.2034538,2.91796035 12.2880637,3.39148376 12.3157807,3.86500716 L12.3157807,4.03335159 Z" id="Stroke-11" stroke="#003D99" stroke-width="0.5"></path>
                <path d="M4.84193001,16.9168352 L0.0728519992,18.5069169 L0.0728519992,6.48706644 L3.92172494,5.20420605 C3.9491502,5.28794062 3.97745074,5.39910046 4.03317654,5.51084382 L0.407206789,6.70996963 L0.407206789,18.060527 L4.5069917,16.6942238 L4.5069917,6.76540367 C4.61785978,7.01631565 4.72960314,7.26839465 4.84193001,7.51901486 L4.84193001,16.9168352 Z" id="Fill-13" fill="#003D99"></path>
                <path d="M4.84193001,16.9168352 L0.0728519992,18.5069169 L0.0728519992,6.48706644 L3.92172494,5.20420605 C3.9491502,5.28794062 3.97745074,5.39910046 4.03317654,5.51084382 L0.407206789,6.70996963 L0.407206789,18.060527 L4.5069917,16.6942238 L4.5069917,6.76540367 C4.61785978,7.01631565 4.72960314,7.26839465 4.84193001,7.51901486 L4.84193001,16.9168352 Z" id="Stroke-15" stroke="#003D99" stroke-width="0.5"></path>
                <path d="M8.29973038,3.47486822 C8.71781975,3.47486822 9.08105859,3.64204562 9.35939582,3.89412462 C9.63831657,4.17246186 9.80549397,4.53482542 9.80549397,4.95262303 C9.80549397,5.34357889 9.63831657,5.73365948 9.35939582,5.98457145 C9.08105859,6.26407572 8.71781975,6.43125311 8.29973038,6.43125311 C7.88076574,6.43125311 7.49097691,6.26407572 7.21205616,5.98457145 C6.96143595,5.73365948 6.79338328,5.34357889 6.79338328,4.95262303 C6.79338328,4.53482542 6.96143595,4.17246186 7.21205616,3.89412462 C7.49097691,3.64204562 7.88076574,3.47486822 8.29973038,3.47486822 M9.13678439,4.11673606 C8.91300592,3.92067461 8.63408517,3.78238127 8.29973038,3.78238127 C7.96479207,3.78238127 7.6581543,3.92067461 7.46325989,4.11673606 C7.24006494,4.33963925 7.10089632,4.61856 7.10089632,4.95262303 C7.10089632,5.26013608 7.24006494,5.56648209 7.46325989,5.76166826 C7.6581543,5.98457145 7.96479207,6.09689832 8.29973038,6.09689832 C8.63408517,6.09689832 8.91300592,5.98457145 9.13678439,5.76166826 C9.35939582,5.56648209 9.47113918,5.26013608 9.47113918,4.95262303 C9.47113918,4.61856 9.35939582,4.33963925 9.13678439,4.11673606" id="Fill-17" fill="#003D98"></path>
                <path d="M8.29973038,3.47486822 C8.71781975,3.47486822 9.08105859,3.64204562 9.35939582,3.89412462 C9.63831657,4.17246186 9.80549397,4.53482542 9.80549397,4.95262303 C9.80549397,5.34357889 9.63831657,5.73365948 9.35939582,5.98457145 C9.08105859,6.26407572 8.71781975,6.43125311 8.29973038,6.43125311 C7.88076574,6.43125311 7.49097691,6.26407572 7.21205616,5.98457145 C6.96143595,5.73365948 6.79338328,5.34357889 6.79338328,4.95262303 C6.79338328,4.53482542 6.96143595,4.17246186 7.21205616,3.89412462 C7.49097691,3.64204562 7.88076574,3.47486822 8.29973038,3.47486822 Z M9.13678439,4.11673606 C8.91300592,3.92067461 8.63408517,3.78238127 8.29973038,3.78238127 C7.96479207,3.78238127 7.6581543,3.92067461 7.46325989,4.11673606 C7.24006494,4.33963925 7.10089632,4.61856 7.10089632,4.95262303 C7.10089632,5.26013608 7.24006494,5.56648209 7.46325989,5.76166826 C7.6581543,5.98457145 7.96479207,6.09689832 8.29973038,6.09689832 C8.63408517,6.09689832 8.91300592,5.98457145 9.13678439,5.76166826 C9.35939582,5.56648209 9.47113918,5.26013608 9.47113918,4.95262303 C9.47113918,4.61856 9.35939582,4.33963925 9.13678439,4.11673606 Z" id="Stroke-19" stroke="#003D99" stroke-width="0.5"></path>
            </g>
        </g>
    </g>
</svg>