<svg xmlns="http://www.w3.org/2000/svg" viewBox="0 0 50.01 50">
  <defs>
    <style>
      .a {
      fill: #666666;
      }
    </style>
  </defs>
  <title>icon-pin</title>
  <path class="a" d="M36.06,0a3.51,3.51,0,0,0-2.66,1.5L25.13,13.12a15.9,15.9,0,0,0-14.78,4.22,0.94,0.94,0,0,0-.28.69,1,1,0,0,0,.28.72L31.25,39.66a0.94,0.94,0,0,0,.69.28,1,1,0,0,0,.72-0.31,15.74,15.74,0,0,0,4.16-15l11.69-8A3.5,3.5,0,0,0,50,14.25a2.2,2.2,0,0,0-.62-1.72L37.63,0.62A2.17,2.17,0,0,0,36.06,0ZM16.53,27.75L0.22,48.37a1,1,0,0,0,.06,1.34A1,1,0,0,0,1,50a1,1,0,0,0,.63-0.22L22.22,33.47Z" transform="translate(0 0)"/>
</svg>
