<svg xmlns="http://www.w3.org/2000/svg" xmlns:xlink="http://www.w3.org/1999/xlink" viewBox="0 0 50 50" version="1.1">
  <g id="surface1">
    <path stroke-width="3px" fill="#f8e71d" stroke="#f8e71d" d="M 25 3 C 12.898438 3 3 12.898438 3 25 C 3 37.101563 12.898438 47 25 47 C 37.101563 47 47 37.101563 47 25 C 47 20.699219 45.789063 16.804688 43.6875 13.40625 L 42.3125 15 C 44.011719 18 45 21.398438 45 25 C 45 36 36 45 25 45 C 14 45 5 36 5 25 C 5 14 14 5 25 5 C 30.199219 5 34.898438 7.011719 38.5 10.3125 L 39.8125 8.8125 C 35.914063 5.210938 30.699219 3 25 3 Z M 43.25 7.75 L 23.90625 30.5625 L 15.78125 22.96875 L 14.40625 24.4375 L 23.3125 32.71875 L 24.09375 33.4375 L 24.75 32.65625 L 44.75 9.03125 Z "></path>
  </g>
</svg>
