<svg xmlns="http://www.w3.org/2000/svg" viewBox="0 0 50 50">
  <defs>
    <style>
      .a {
      stroke: #3170c4;
      fill: #3170c4;
      stroke-width: 0.2px;
      }
    </style>
  </defs>
  <title>icon-points</title>
  <path class="a" d="M33.59,0A16.43,16.43,0,0,0,18.11,11,19.53,19.53,0,1,0,39,31.89,16.4,16.4,0,0,0,33.59,0Zm0,1.56A14.84,14.84,0,0,1,39.05,30.2a19.35,19.35,0,0,0-3.12-10.31v-9a0.74,0.74,0,0,0-.47-0.72,0.79,0.79,0,0,0-.86.16l-2.34,2.34a0.78,0.78,0,0,0,1.09,1.11l1-1v5A19.43,19.43,0,0,0,19.8,10.95,14.85,14.85,0,0,1,33.59,1.56Zm0.78,2.34a0.78,0.78,0,0,0-.78.78V6.25a0.78,0.78,0,0,0,1.56,0V4.69A0.78,0.78,0,0,0,34.38,3.91Zm-4.09.8a0.73,0.73,0,0,0-.3.05,0.78,0.78,0,0,0-.43,1l0.59,1.45a0.78,0.78,0,0,0,1.45-.59L31,5.19A0.78,0.78,0,0,0,30.29,4.7Zm8.36,0.07a0.79,0.79,0,0,0-.72.48L37.32,6.69a0.78,0.78,0,0,0,.41,1,0.85,0.85,0,0,0,.31.06,0.78,0.78,0,0,0,.71-0.48l0.61-1.44a0.78,0.78,0,0,0-.41-1A0.76,0.76,0,0,0,38.65,4.77Zm3.46,2.34a0.79,0.79,0,0,0-.55.23L40.45,8.45A0.78,0.78,0,0,0,41,9.78a0.77,0.77,0,0,0,.55-0.23l1.11-1.11A0.78,0.78,0,0,0,42.11,7.11Zm2.42,3.64a0.76,0.76,0,0,0-.3.05l-1.45.59a0.78,0.78,0,0,0,.29,1.51,0.77,0.77,0,0,0,.29-0.06l1.45-.59A0.78,0.78,0,0,0,44.53,10.75Zm-25,1.75A18,18,0,0,1,35.94,23.16a17.74,17.74,0,0,1,1.56,7.31c0,0.09,0,.17,0,0.26a14.1,14.1,0,0,1-.09,1.63A18,18,0,1,1,17.64,12.6a14.1,14.1,0,0,1,1.63-.09h0.26Zm0,2.34a15.63,15.63,0,1,0,10.46,4,0.78,0.78,0,0,0-1,1.16,14.06,14.06,0,1,1-7.08-3.43,0.78,0.78,0,1,0,.26-1.54A15.53,15.53,0,0,0,19.53,14.84Zm24.22,0a0.78,0.78,0,0,0,0,1.56h1.56a0.78,0.78,0,0,0,0-1.56H43.75ZM25,15.88a0.78,0.78,0,0,0-.27,1.51,14.09,14.09,0,0,1,1.88.91,0.75,0.75,0,0,0,.39.11,0.78,0.78,0,0,0,.39-1.46,14.93,14.93,0,0,0-2.09-1A0.75,0.75,0,0,0,25,15.88Zm-7.08,6.78A1.56,1.56,0,0,0,16.33,24l-0.59,4.69a1.57,1.57,0,0,0,1.55,1.76h2.24a2.35,2.35,0,0,1,2.34,2.34v1.56a2.35,2.35,0,0,1-2.34,2.34H18a1.56,1.56,0,0,1-1.56-1.56,0.78,0.78,0,0,0-1.56,0A3.13,3.13,0,0,0,18,38.28h1.56a3.91,3.91,0,0,0,3.91-3.91V32.81a3.91,3.91,0,0,0-3.91-3.91H17.29l0.59-4.69h4.78a0.78,0.78,0,0,0,0-1.56H17.88Zm-9,9.54a0.84,0.84,0,0,0-.31,0,0.78,0.78,0,0,0-.59.94,11.88,11.88,0,0,0,5.56,7.54,0.77,0.77,0,0,0,.39.11,0.78,0.78,0,0,0,.39-1.46,10.3,10.3,0,0,1-4.82-6.55A0.79,0.79,0,0,0,8.9,32.2Z"/>
</svg>
